<svg xmlns="http://www.w3.org/2000/svg" viewBox="0 0 392 420">
<defs><linearGradient id="bg" x1="0" y1="0" x2="1" y2="1"><stop offset="0" stop-color="#fff7f3"/><stop offset="1" stop-color="#ffffff"/></linearGradient><radialGradient id="skin" cx="50%" cy="35%" r="70%"><stop offset="0" stop-color="#f8e7d9"/><stop offset="1" stop-color="#f1c8ae"/></radialGradient><filter id="blur"><feGaussianBlur stdDeviation="16"/></filter></defs>
<rect width="392" height="420" rx="22" fill="url(#bg)"/><circle cx="337" cy="58" r="62" fill="#fc5f2b" opacity=".07" filter="url(#blur)"/>
<path d="M47 427 C47 317 77 230 95 142 C107 83 151 45 196 45 C241 45 285 83 297 142 C315 230 345 317 345 427Z" fill="url(#skin)"/>
<path d="M 83.0 120.0 Q 111.6 90.9 138.0 92.3 Q 167.7 96.1 190.8 122.0" fill="none" stroke="#4a2f29" stroke-width="5.2" stroke-linecap="round"/><path d="M 199.0 136.0 Q 227.6 106.9 254.0 108.3 Q 283.7 112.1 306.8 138.0" fill="none" stroke="#4a2f29" stroke-width="5.2" stroke-linecap="round"/>
<path d="M86.0,124.0 Q85.0,90.9 84.0,85.9" stroke="#4a2f29" stroke-width="1.5" stroke-linecap="round" opacity="0.25"/><path d="M91.8,124.0 Q90.8,89.9 89.8,84.9" stroke="#4a2f29" stroke-width="1.5" stroke-linecap="round" opacity="0.28"/><path d="M97.6,124.0 Q96.6,88.9 95.6,83.9" stroke="#4a2f29" stroke-width="1.5" stroke-linecap="round" opacity="0.30"/><path d="M103.3,124.0 Q102.3,87.8 101.3,82.8" stroke="#4a2f29" stroke-width="1.5" stroke-linecap="round" opacity="0.33"/><path d="M109.1,124.0 Q108.1,94.6 107.1,89.6" stroke="#4a2f29" stroke-width="1.5" stroke-linecap="round" opacity="0.25"/><path d="M114.9,124.0 Q113.9,93.3 112.9,88.3" stroke="#4a2f29" stroke-width="1.5" stroke-linecap="round" opacity="0.28"/><path d="M120.7,124.0 Q119.7,91.9 118.7,86.9" stroke="#4a2f29" stroke-width="1.5" stroke-linecap="round" opacity="0.30"/><path d="M126.4,124.0 Q125.4,90.3 124.4,85.3" stroke="#4a2f29" stroke-width="1.5" stroke-linecap="round" opacity="0.33"/><path d="M132.2,124.0 Q131.2,96.6 130.2,91.6" stroke="#4a2f29" stroke-width="1.5" stroke-linecap="round" opacity="0.25"/><path d="M138.0,124.0 Q137.0,94.7 136.0,89.7" stroke="#4a2f29" stroke-width="1.5" stroke-linecap="round" opacity="0.28"/><path d="M143.8,124.0 Q142.8,92.6 141.8,87.6" stroke="#4a2f29" stroke-width="1.5" stroke-linecap="round" opacity="0.30"/><path d="M149.6,124.0 Q148.6,90.3 147.6,85.3" stroke="#4a2f29" stroke-width="1.5" stroke-linecap="round" opacity="0.33"/><path d="M155.3,124.0 Q154.3,95.9 153.3,90.9" stroke="#4a2f29" stroke-width="1.5" stroke-linecap="round" opacity="0.25"/><path d="M161.1,124.0 Q160.1,93.3 159.1,88.3" stroke="#4a2f29" stroke-width="1.5" stroke-linecap="round" opacity="0.28"/><path d="M166.9,124.0 Q165.9,90.6 164.9,85.6" stroke="#4a2f29" stroke-width="1.5" stroke-linecap="round" opacity="0.30"/><path d="M172.7,124.0 Q171.7,87.8 170.7,82.8" stroke="#4a2f29" stroke-width="1.5" stroke-linecap="round" opacity="0.33"/><path d="M178.4,124.0 Q177.4,92.9 176.4,87.9" stroke="#4a2f29" stroke-width="1.5" stroke-linecap="round" opacity="0.25"/><path d="M184.2,124.0 Q183.2,89.9 182.2,84.9" stroke="#4a2f29" stroke-width="1.5" stroke-linecap="round" opacity="0.28"/><path d="M190.0,124.0 Q189.0,86.9 188.0,81.9" stroke="#4a2f29" stroke-width="1.5" stroke-linecap="round" opacity="0.30"/><path d="M202.0,140.0 Q203.0,106.9 204.0,101.9" stroke="#4a2f29" stroke-width="1.5" stroke-linecap="round" opacity="0.25"/><path d="M207.8,140.0 Q208.8,105.9 209.8,100.9" stroke="#4a2f29" stroke-width="1.5" stroke-linecap="round" opacity="0.28"/><path d="M213.6,140.0 Q214.6,104.9 215.6,99.9" stroke="#4a2f29" stroke-width="1.5" stroke-linecap="round" opacity="0.30"/><path d="M219.3,140.0 Q220.3,103.8 221.3,98.8" stroke="#4a2f29" stroke-width="1.5" stroke-linecap="round" opacity="0.33"/><path d="M225.1,140.0 Q226.1,110.6 227.1,105.6" stroke="#4a2f29" stroke-width="1.5" stroke-linecap="round" opacity="0.25"/><path d="M230.9,140.0 Q231.9,109.3 232.9,104.3" stroke="#4a2f29" stroke-width="1.5" stroke-linecap="round" opacity="0.28"/><path d="M236.7,140.0 Q237.7,107.9 238.7,102.9" stroke="#4a2f29" stroke-width="1.5" stroke-linecap="round" opacity="0.30"/><path d="M242.4,140.0 Q243.4,106.3 244.4,101.3" stroke="#4a2f29" stroke-width="1.5" stroke-linecap="round" opacity="0.33"/><path d="M248.2,140.0 Q249.2,112.6 250.2,107.6" stroke="#4a2f29" stroke-width="1.5" stroke-linecap="round" opacity="0.25"/><path d="M254.0,140.0 Q255.0,110.7 256.0,105.7" stroke="#4a2f29" stroke-width="1.5" stroke-linecap="round" opacity="0.28"/><path d="M259.8,140.0 Q260.8,108.6 261.8,103.6" stroke="#4a2f29" stroke-width="1.5" stroke-linecap="round" opacity="0.30"/><path d="M265.6,140.0 Q266.6,106.3 267.6,101.3" stroke="#4a2f29" stroke-width="1.5" stroke-linecap="round" opacity="0.33"/><path d="M271.3,140.0 Q272.3,111.9 273.3,106.9" stroke="#4a2f29" stroke-width="1.5" stroke-linecap="round" opacity="0.25"/><path d="M277.1,140.0 Q278.1,109.3 279.1,104.3" stroke="#4a2f29" stroke-width="1.5" stroke-linecap="round" opacity="0.28"/><path d="M282.9,140.0 Q283.9,106.6 284.9,101.6" stroke="#4a2f29" stroke-width="1.5" stroke-linecap="round" opacity="0.30"/><path d="M288.7,140.0 Q289.7,103.8 290.7,98.8" stroke="#4a2f29" stroke-width="1.5" stroke-linecap="round" opacity="0.33"/><path d="M294.4,140.0 Q295.4,108.9 296.4,103.9" stroke="#4a2f29" stroke-width="1.5" stroke-linecap="round" opacity="0.25"/><path d="M300.2,140.0 Q301.2,105.9 302.2,100.9" stroke="#4a2f29" stroke-width="1.5" stroke-linecap="round" opacity="0.28"/><path d="M306.0,140.0 Q307.0,102.9 308.0,97.9" stroke="#4a2f29" stroke-width="1.5" stroke-linecap="round" opacity="0.30"/>
<path d="M95 169 Q138 146 180 169 Q138 194 95 169Z" fill="#fff" opacity=".88"/><path d="M212 169 Q254 146 297 169 Q254 194 212 169Z" fill="#fff" opacity=".88"/>
<ellipse cx="139" cy="171" rx="10" ry="15" fill="#2f211d"/><ellipse cx="254" cy="171" rx="10" ry="15" fill="#2f211d"/><circle cx="142" cy="166" r="3" fill="#fff" opacity=".9"/><circle cx="257" cy="166" r="3" fill="#fff" opacity=".9"/>
<path d="M196 168 C187 224 183 249 174 276 Q196 290 218 276" fill="none" stroke="#9c6f5d" stroke-width="3" stroke-linecap="round" opacity=".25"/>
<g transform="translate(324 336)"><circle r="5" fill="#fc5f2b"/><ellipse rx="27" ry="13.5" transform="rotate(0)" fill="#fc5f2b" opacity="0.18"/><ellipse rx="27" ry="13.5" transform="rotate(60)" fill="#fc5f2b" opacity="0.18"/><ellipse rx="27" ry="13.5" transform="rotate(120)" fill="#fc5f2b" opacity="0.18"/><ellipse rx="27" ry="13.5" transform="rotate(180)" fill="#fc5f2b" opacity="0.18"/><ellipse rx="27" ry="13.5" transform="rotate(240)" fill="#fc5f2b" opacity="0.18"/><ellipse rx="27" ry="13.5" transform="rotate(300)" fill="#fc5f2b" opacity="0.18"/></g>
<text x="28" y="390" font-family="Arial,sans-serif" font-size="10" letter-spacing="2" fill="#71717a">MICROBLADING.SONGUL · LOOK 13</text></svg>