<svg xmlns="http://www.w3.org/2000/svg" viewBox="0 0 392 420">
<defs><linearGradient id="bg" x1="0" y1="0" x2="1" y2="1"><stop offset="0" stop-color="#fff7f3"/><stop offset="1" stop-color="#ffffff"/></linearGradient><radialGradient id="skin" cx="50%" cy="35%" r="70%"><stop offset="0" stop-color="#f0c5a9"/><stop offset="1" stop-color="#f4d5bd"/></radialGradient><filter id="blur"><feGaussianBlur stdDeviation="16"/></filter></defs>
<rect width="392" height="420" rx="22" fill="url(#bg)"/><circle cx="337" cy="58" r="62" fill="#fc5f2b" opacity=".07" filter="url(#blur)"/>
<path d="M47 427 C47 317 77 230 95 142 C107 83 151 45 196 45 C241 45 285 83 297 142 C315 230 345 317 345 427Z" fill="url(#skin)"/>
<path d="M 83.0 117.0 Q 111.6 87.0 138.0 88.5 Q 167.7 92.4 190.8 119.0" fill="none" stroke="#3a2926" stroke-width="5.2" stroke-linecap="round"/><path d="M 199.0 139.0 Q 227.6 109.0 254.0 110.5 Q 283.7 114.4 306.8 141.0" fill="none" stroke="#3a2926" stroke-width="5.2" stroke-linecap="round"/>
<path d="M86.0,121.0 Q85.0,87.0 84.0,82.0" stroke="#3a2926" stroke-width="1.5" stroke-linecap="round" opacity="0.25"/><path d="M91.8,121.0 Q90.8,86.0 89.8,81.0" stroke="#3a2926" stroke-width="1.5" stroke-linecap="round" opacity="0.28"/><path d="M97.6,121.0 Q96.6,85.1 95.6,80.1" stroke="#3a2926" stroke-width="1.5" stroke-linecap="round" opacity="0.30"/><path d="M103.3,121.0 Q102.3,84.0 101.3,79.0" stroke="#3a2926" stroke-width="1.5" stroke-linecap="round" opacity="0.33"/><path d="M109.1,121.0 Q108.1,90.9 107.1,85.9" stroke="#3a2926" stroke-width="1.5" stroke-linecap="round" opacity="0.25"/><path d="M114.9,121.0 Q113.9,89.6 112.9,84.6" stroke="#3a2926" stroke-width="1.5" stroke-linecap="round" opacity="0.28"/><path d="M120.7,121.0 Q119.7,88.2 118.7,83.2" stroke="#3a2926" stroke-width="1.5" stroke-linecap="round" opacity="0.30"/><path d="M126.4,121.0 Q125.4,86.6 124.4,81.6" stroke="#3a2926" stroke-width="1.5" stroke-linecap="round" opacity="0.33"/><path d="M132.2,121.0 Q131.2,92.9 130.2,87.9" stroke="#3a2926" stroke-width="1.5" stroke-linecap="round" opacity="0.25"/><path d="M138.0,121.0 Q137.0,91.0 136.0,86.0" stroke="#3a2926" stroke-width="1.5" stroke-linecap="round" opacity="0.28"/><path d="M143.8,121.0 Q142.8,88.9 141.8,83.9" stroke="#3a2926" stroke-width="1.5" stroke-linecap="round" opacity="0.30"/><path d="M149.6,121.0 Q148.6,86.6 147.6,81.6" stroke="#3a2926" stroke-width="1.5" stroke-linecap="round" opacity="0.33"/><path d="M155.3,121.0 Q154.3,92.2 153.3,87.2" stroke="#3a2926" stroke-width="1.5" stroke-linecap="round" opacity="0.25"/><path d="M161.1,121.0 Q160.1,89.6 159.1,84.6" stroke="#3a2926" stroke-width="1.5" stroke-linecap="round" opacity="0.28"/><path d="M166.9,121.0 Q165.9,86.9 164.9,81.9" stroke="#3a2926" stroke-width="1.5" stroke-linecap="round" opacity="0.30"/><path d="M172.7,121.0 Q171.7,84.0 170.7,79.0" stroke="#3a2926" stroke-width="1.5" stroke-linecap="round" opacity="0.33"/><path d="M178.4,121.0 Q177.4,89.1 176.4,84.1" stroke="#3a2926" stroke-width="1.5" stroke-linecap="round" opacity="0.25"/><path d="M184.2,121.0 Q183.2,86.0 182.2,81.0" stroke="#3a2926" stroke-width="1.5" stroke-linecap="round" opacity="0.28"/><path d="M190.0,121.0 Q189.0,83.0 188.0,78.0" stroke="#3a2926" stroke-width="1.5" stroke-linecap="round" opacity="0.30"/><path d="M202.0,143.0 Q203.0,109.0 204.0,104.0" stroke="#3a2926" stroke-width="1.5" stroke-linecap="round" opacity="0.25"/><path d="M207.8,143.0 Q208.8,108.0 209.8,103.0" stroke="#3a2926" stroke-width="1.5" stroke-linecap="round" opacity="0.28"/><path d="M213.6,143.0 Q214.6,107.1 215.6,102.1" stroke="#3a2926" stroke-width="1.5" stroke-linecap="round" opacity="0.30"/><path d="M219.3,143.0 Q220.3,106.0 221.3,101.0" stroke="#3a2926" stroke-width="1.5" stroke-linecap="round" opacity="0.33"/><path d="M225.1,143.0 Q226.1,112.9 227.1,107.9" stroke="#3a2926" stroke-width="1.5" stroke-linecap="round" opacity="0.25"/><path d="M230.9,143.0 Q231.9,111.6 232.9,106.6" stroke="#3a2926" stroke-width="1.5" stroke-linecap="round" opacity="0.28"/><path d="M236.7,143.0 Q237.7,110.2 238.7,105.2" stroke="#3a2926" stroke-width="1.5" stroke-linecap="round" opacity="0.30"/><path d="M242.4,143.0 Q243.4,108.6 244.4,103.6" stroke="#3a2926" stroke-width="1.5" stroke-linecap="round" opacity="0.33"/><path d="M248.2,143.0 Q249.2,114.9 250.2,109.9" stroke="#3a2926" stroke-width="1.5" stroke-linecap="round" opacity="0.25"/><path d="M254.0,143.0 Q255.0,113.0 256.0,108.0" stroke="#3a2926" stroke-width="1.5" stroke-linecap="round" opacity="0.28"/><path d="M259.8,143.0 Q260.8,110.9 261.8,105.9" stroke="#3a2926" stroke-width="1.5" stroke-linecap="round" opacity="0.30"/><path d="M265.6,143.0 Q266.6,108.6 267.6,103.6" stroke="#3a2926" stroke-width="1.5" stroke-linecap="round" opacity="0.33"/><path d="M271.3,143.0 Q272.3,114.2 273.3,109.2" stroke="#3a2926" stroke-width="1.5" stroke-linecap="round" opacity="0.25"/><path d="M277.1,143.0 Q278.1,111.6 279.1,106.6" stroke="#3a2926" stroke-width="1.5" stroke-linecap="round" opacity="0.28"/><path d="M282.9,143.0 Q283.9,108.9 284.9,103.9" stroke="#3a2926" stroke-width="1.5" stroke-linecap="round" opacity="0.30"/><path d="M288.7,143.0 Q289.7,106.0 290.7,101.0" stroke="#3a2926" stroke-width="1.5" stroke-linecap="round" opacity="0.33"/><path d="M294.4,143.0 Q295.4,111.1 296.4,106.1" stroke="#3a2926" stroke-width="1.5" stroke-linecap="round" opacity="0.25"/><path d="M300.2,143.0 Q301.2,108.0 302.2,103.0" stroke="#3a2926" stroke-width="1.5" stroke-linecap="round" opacity="0.28"/><path d="M306.0,143.0 Q307.0,105.0 308.0,100.0" stroke="#3a2926" stroke-width="1.5" stroke-linecap="round" opacity="0.30"/>
<path d="M95 172 Q138 149 180 172 Q138 197 95 172Z" fill="#fff" opacity=".88"/><path d="M212 172 Q254 149 297 172 Q254 197 212 172Z" fill="#fff" opacity=".88"/>
<ellipse cx="139" cy="174" rx="10" ry="15" fill="#2f211d"/><ellipse cx="254" cy="174" rx="10" ry="15" fill="#2f211d"/><circle cx="142" cy="169" r="3" fill="#fff" opacity=".9"/><circle cx="257" cy="169" r="3" fill="#fff" opacity=".9"/>
<path d="M196 168 C187 224 183 249 174 276 Q196 290 218 276" fill="none" stroke="#9c6f5d" stroke-width="3" stroke-linecap="round" opacity=".25"/>
<g transform="translate(324 336)"><circle r="5" fill="#fc5f2b"/><ellipse rx="27" ry="13.5" transform="rotate(0)" fill="#fc5f2b" opacity="0.18"/><ellipse rx="27" ry="13.5" transform="rotate(60)" fill="#fc5f2b" opacity="0.18"/><ellipse rx="27" ry="13.5" transform="rotate(120)" fill="#fc5f2b" opacity="0.18"/><ellipse rx="27" ry="13.5" transform="rotate(180)" fill="#fc5f2b" opacity="0.18"/><ellipse rx="27" ry="13.5" transform="rotate(240)" fill="#fc5f2b" opacity="0.18"/><ellipse rx="27" ry="13.5" transform="rotate(300)" fill="#fc5f2b" opacity="0.18"/></g>
<text x="28" y="390" font-family="Arial,sans-serif" font-size="10" letter-spacing="2" fill="#71717a">MICROBLADING.SONGUL · LOOK 08</text></svg>